# xmcd
#
# Track frame offsets: 
#        150
#        32015
#        57212
#        77961
#        109278
#
# Disc length: 1823 seconds
#
# Revision: 0
# Processed by: cddbd v1.5.2PL0 Copyright (c) Steve Scherf et al.
# Submitted via: ExactAudioCopy v1.0b3
#
DISCID=3b071d05
DTITLE=LOOLOWNINGEN and THE FAR EAST IDIOTS - MISTERIOSO
DYEAR=2013
DGENRE=Alternative
TTITLE0=クレンジング・ミー
TTITLE1=スケルツォ・ミオクロニア
TTITLE2=図書館
TTITLE3=針金の木
TTITLE4=手のリレー
EXTD=
EXTT0=
EXTT1=
EXTT2=
EXTT3=
EXTT4=
PLAYORDER=
